<?xml version="1.0" encoding="utf-8"?>
<!-- Generator: Adobe Illustrator 25.0.1, SVG Export Plug-In . SVG Version: 6.00 Build 0)  -->
<!-- see: https://www.fiverr.com/polashsinha -->
<svg version="1.1" id="Layer_1" xmlns="http://www.w3.org/2000/svg" xmlns:xlink="http://www.w3.org/1999/xlink" x="0px" y="0px"
	 viewBox="0 0 792 612" style="enable-background:new 0 0 792 612;" xml:space="preserve">
<style type="text/css">
	.st0{fill:#8CC046;}
	.st1{fill:#513914;}
</style>
<g>
	<path class="st0" d="M322.82,66.89c1.52-9.22,6.97-17.27,13.92-23.34c3.86,7.51,7.7,15.52,7.13,24.2
		c0.28,4.94-2.97,9.75-7.52,11.56c-2.8,0.68-6.03,0.78-8.52-0.89C323.85,76.21,322.11,71.24,322.82,66.89z"/>
	<path class="st0" d="M347.2,71.37c-1.71-7.65,2.14-15.22,7.31-20.64c4.4,5.1,7.31,11.7,6.42,18.57c-0.1,4.22-4.6,5.59-7.38,7.91
		c-0.18,0.15-0.18,0.45,0.01,0.6c1.09,0.88,2.23,1.7,3.4,2.47c0.17,0.11,0.39,0.1,0.53-0.04c2.67-2.47,5.15-6.34,9.32-5.62
		c5.66,1.11,10.25,5.86,12.28,11.13c2.22,7.13-2.1,14.79-8.56,17.91c-4.83,1.92-10.73,1.41-14.76-2.03
		c-3.58-2.94-7.34-7.39-6.18-12.36c1.4-3.79,5.92-4.96,7.8-8.44c-1.43-0.72-2.98-1.12-4.56-1.22c-0.56-0.04-0.91-0.61-0.69-1.13
		c0.32-0.76,0.63-1.51,0.93-2.27C350.88,74.96,348.31,73.8,347.2,71.37z"/>
	<path class="st0" d="M304,72.83c10.17,1.49,20.19,5.92,27.37,13.42c3.36,3.53,6.13,8.62,4.4,13.58
		c-1.57,7.04-10.12,11.19-16.67,8.39c-6.38-3.11-10.06-9.71-12.29-16.17C304.73,85.87,303.68,79.35,304,72.83z"/>
	<path class="st0" d="M383.58,100.69c3.07-7.57,7.35-15,13.94-20.01c5.49,8.48,9.74,18.23,9.38,28.52c-0.28,4.4-1.28,9.35-5.1,12.06
		c-6.37,5.02-17.37,1.97-19.6-6.02C381.41,110.41,381.58,105.22,383.58,100.69z"/>
	<path class="st0" d="M412.94,101.56c3.24-7.87,8.59-15.29,16.27-19.28c2.06,4.93,4.25,10.04,4.08,15.49
		c0.16,5.79,0.54,12.49-3.98,16.89c-5.1,5.78-15.5,2.22-17.24-4.87C411.72,107.03,411.78,104.13,412.94,101.56z"/>
	<path class="st0" d="M271.92,84.45c6.11-0.01,12.47-0.86,18.32,1.38c4.76,1.72,10.23,3.75,12.57,8.63
		c2.82,5.11-0.28,12.01-5.6,13.99c-4.35,2.23-9.2-0.32-12.67-3.03C278.18,100.09,273.87,92.47,271.92,84.45z"/>
	<path class="st0" d="M548,119.81c1.02-6.28,5.31-11.37,10.06-15.32c3.41,5.3,5.09,12.03,3.66,18.24c-0.7,3.96-5.21,6.57-9,5.31
		C549.3,127.12,547.21,123.2,548,119.81z"/>
	<path class="st0" d="M273.2,112.93c3.4-2.46,7.71-4.32,11.95-3.11c2.68,1.3,4.99,3.72,5.7,6.66c0.54,3.49-0.67,7.61-3.97,9.35
		c-7.52,4.25-16.67,3.7-24.74,1.45C263.82,121.35,268.11,116.3,273.2,112.93z"/>
	<path class="st0" d="M368.96,111.16c0.93-0.4,1.89,0.02,2.42,0.82c4.05,4.71,6.83,10.54,7.96,16.64c0.41,4.1,0.17,9.5-4.05,11.61
		c-5.15,3.15-12.54-0.48-13.46-6.36C360.6,125.73,364.27,117.59,368.96,111.16z"/>
	<path class="st0" d="M435.15,117.06c1.67-2.84,4.78-5.1,8.16-5.12c4.19-0.16,8.52-0.28,12.55,1.07c3.24,0.98,6.2,2.67,9.11,4.36
		c-4.69,6.53-11.99,11.23-20,12.31c-3.08,0.41-6.7-0.29-8.55-3.01C434.11,124.05,434.24,120.21,435.15,117.06z"/>
	<path class="st0" d="M536.67,119.09c4.96,3.28,9.79,7.26,12.32,12.78c1.12,2.77,0.98,6.36-1.24,8.57c-1.8,2.02-4.9,2.97-7.42,1.77
		c-2.93-0.98-4.44-4.04-5.19-6.83C534.07,129.95,534.65,124.24,536.67,119.09z"/>
	<path class="st0" d="M297.97,120.45c3.66-1.2,8.13-0.83,10.93,2.06c3.42,2.56,3.94,7.36,2.84,11.21
		c-2.74,5.16-8.31,8.11-13.78,9.56c-5.7,1.86-11.76,1.36-17.64,0.98c1.54-5.85,4.27-11.37,8.05-16.1
		C290.72,124.71,294.19,122.16,297.97,120.45z"/>
	<path class="st0" d="M315.22,124.27c6.74,0.13,13.9,2.32,18.49,7.52c2.04,1.95,1,5.01,1.18,7.49c-0.23,1.49,1.25,2.11,2.31,2.86
		c0.23,0.16,0.23,0.5,0.01,0.67c-1.11,0.82-2.19,1.69-3.22,2.6c-0.2,0.18-0.25,0.49-0.09,0.71c2.07,2.82,5.81,0.81,8.73,0.91
		c2.92-0.46,5.37,1.76,6.66,4.15c2.26,4.47,1.98,9.88,0.13,14.43c-1.84,3.8-5.67,6.4-9.68,7.47c-4.25,1.28-8.84-0.06-12.56-2.22
		c-6.94-4.51-7.56-14.77-3.62-21.45c2-3.26,6.17-2.57,9.41-2.58c0.66-1.6,1.27-3.2,1.77-4.86c0.05-0.16-0.1-0.32-0.26-0.28
		c-3.71,0.9-8.03,2.71-11.32-0.18C318.35,137.17,315.77,130.62,315.22,124.27z"/>
	<path class="st0" d="M239.68,126.4c6.12,0.53,12.02,2.7,17.29,5.79c5.01,2.85,10.14,6.17,12.95,11.38
		c2.78,4.77,2.41,11.59-1.96,15.32c-3.7,4.32-10.44,4.73-15.13,1.87c-4.58-2.55-6.99-7.49-9.13-12.04
		C240.48,141.76,239.49,134,239.68,126.4z"/>
	<path class="st0" d="M213.3,127.93c8,0.98,15.5,4.85,21.35,10.34c3.2,3.07,5.49,8.21,3.12,12.42c-1.9,4.37-7.39,7.09-11.93,5.31
		c-2.49-0.72-4.43-2.57-5.94-4.59C215.1,144.63,212.73,136.21,213.3,127.93z"/>
	<path class="st0" d="M552.89,138.99c2.71-6.04,8.7-10.18,14.97-11.86c1.84,4.25,0.85,8.99-0.1,13.33
		c-1.24,3.73-3.88,7.81-8.24,7.97C554.81,148.75,551.04,143.37,552.89,138.99z"/>
	<path class="st0" d="M413,134.18c6.36-3.54,14.07-1.67,20.58,0.51c-1.24,4.37-5.14,7.19-8.66,9.69c-2.53,1.6-5.33,2.99-8.35,3.19
		c-3.51-0.24-5.46-4.22-9.09-3.9c-0.06,1.24-0.1,2.49-0.13,3.75c2.65,1.28,5.99,2.24,7.18,5.27c2.06,4.57-0.19,9.71-2.74,13.6
		c-2.11,3.42-6.09,4.99-9.88,5.65c-5.99,0.89-12.09-2.63-15.21-7.65c-3.22-6.32-1.26-14.56,3.84-19.32
		c2.54-2.39,6.77-2.94,9.61-0.76c1.9,0.93,3.73,3.22,5.99,2.57c0.37-1.92-0.55-3.76-0.92-5.61c1.31-0.07,2.97,0.79,4.09-0.07
		C410.12,138.62,410.35,135.48,413,134.18z"/>
	<path class="st0" d="M449.61,140.61c2.49-3.55,5.62-6.83,9.61-8.67c2.06,5.54,3.31,11.73,1.6,17.53c-0.91,3.02-3.35,6.35-6.92,5.72
		c-2.64,0.45-5.01-0.99-6.03-3.42C445.43,148.18,447.56,143.82,449.61,140.61z"/>
	<path class="st0" d="M431.11,147.14c1.87-5.05,5.27-9.61,9.65-12.77c3.25,5.74,5.23,12.73,3.24,19.21
		c-1.39,4.63-7.91,6.25-11.33,2.84C429.9,154.19,430.49,150.21,431.11,147.14z"/>
	<path class="st0" d="M492,141.59c3.45-3.49,7.7-6.58,12.69-7.21c0.63,6.72,0.44,14.23-4.54,19.4c-3.39,3.93-10.47,1.54-11.54-3.26
		C487.86,147.18,489.84,143.97,492,141.59z"/>
	<path class="st0" d="M172.41,158.74c1.37-8.15,6.35-15.24,12.68-20.39c4.43,6.56,6.79,14.72,5.82,22.64
		c-0.51,3.5-2.65,6.98-6.06,8.26c-3.19,1.16-7.1,0.75-9.64-1.63C172.76,165.41,171.93,161.92,172.41,158.74z"/>
	<path class="st0" d="M521.1,161.25c-0.5-8.32,3.05-16.58,8.35-22.87c6.3,6.53,10.88,15.72,9.26,24.99
		c-1.03,5.09-7.52,7.57-11.97,5.37C523.69,167.46,521.14,164.7,521.1,161.25z"/>
	<path class="st0" d="M464.78,150.1c4.4-5.75,11.93-7.49,18.79-8.01c0.01,5.97-2.85,11.63-6.84,15.94
		c-1.98,2.13-4.96,4.24-7.96,2.96c-1.77-0.16-4.22-2.23-5.36-0.02c0.26,1.27,0.65,2.51,1.01,3.76c3.35,0.33,7.4-0.73,10.15,1.76
		c4.35,5.74,4.18,14.33-0.31,19.95c-4.59,5.57-13.33,6.74-19.4,2.99c-7.86-4.65-9.92-17.5-2.75-23.61
		c3.67-2.98,8.53,1.19,12.22-1.14c-0.93-1.48-1.97-2.89-3.1-4.22c-0.26-0.31-0.1-0.79,0.3-0.86c0.89-0.16,1.77-0.32,2.67-0.48
		C463.91,156.15,462.47,152.65,464.78,150.1z"/>
	<path class="st0" d="M193.95,144.36c6.96-0.19,14.03,2.55,18.8,7.66c2.13,2.26,1.39,5.43,1.01,8.19c-0.02,0.13,0.02,0.27,0.13,0.35
		c0.79,0.66,2.37,0.89,2.28,2.1c-0.39,0.58-0.84,1.1-1.28,1.65c-0.05,0.06-0.15,0.05-0.19-0.02c-0.39-0.84-0.79-1.69-1.18-2.53
		c-0.06-0.13-0.22-0.19-0.35-0.14c-3.08,1.3-6.85,2.9-9.9,0.68C197.65,158.15,194.79,151.1,193.95,144.36z"/>
	<path class="st0" d="M299.67,148.37c3.47-1.4,7.22-1.67,10.93-1.59c-0.85,9.35-4.9,19.6-13.57,24.22c-2.61-0.07-5.2-0.42-7.8-0.51
		c-1.67-1.78-3.93-3.48-4.06-6.14c-0.12-2.46-0.46-5.31,1.19-7.38C289.48,152.48,294.74,150.26,299.67,148.37z"/>
	<path class="st0" d="M504.61,154.21c3.07-2.27,6.07-4.84,9.77-6.01c0.85,3.16,1.76,6.36,1.79,9.66c0.06,6.26,0.63,12.86-2.17,18.67
		c-2.02,4.7-6.92,8.25-12.17,7.67c-5.94-0.85-10.71-7.09-9.3-13.08C494.07,164.14,499.16,158.56,504.61,154.21z"/>
	<path class="st0" d="M557.16,152.22c6.93-2.52,14.71-2.52,21.71-0.21c-3.48,7.26-8.65,14.44-16.27,17.67
		c-5.6,2.72-13.44-2.02-12.57-8.48C549.52,156.79,553.49,153.65,557.16,152.22z"/>
	<path class="st0" d="M416.92,175.03c-0.14-7.89,3.21-15.68,8.48-21.49c5.81,6.14,10.04,14.47,9.33,23.1
		c-0.3,4.27-4.13,8.05-8.5,7.83C421.15,184.78,416.8,180,416.92,175.03z"/>
	<path class="st0" d="M151.21,155.55c7.9,2.1,15.94,6.15,20.48,13.21c1.8,2.45,1.95,5.61,1.52,8.51
		c-1.65,6.62-11.67,8.91-15.82,3.39C151.84,173.64,150.46,164.26,151.21,155.55z"/>
	<path class="st0" d="M204.76,167.92c3.42-1.59,7.39-0.21,11.03-0.53c3.62,0.28,8.09-1.37,10.99,1.53
		c6.21,7.53,2.84,21.01-6.69,24.01c-5.81,1.39-13.21,0.72-16.82-4.67C198.99,182.39,198.25,172.45,204.76,167.92z"/>
	<path class="st0" d="M562.23,178.23c-0.45-3.74,2.71-7.31,6.4-7.66c6.27-0.77,12.52,1.63,17.59,5.19
		c-4.76,5.61-12.21,10-19.77,8.43C564.29,182.98,562.13,180.89,562.23,178.23z"/>
	<path class="st0" d="M238.03,183.4c4.7-4.88,11.69-7.37,18.41-7.07c-0.6,6.7-3.33,14.07-9.26,17.8c-3.32,2.18-7.02-0.29-10.57-0.02
		c-0.19,0.01-0.32,0.21-0.28,0.39c0.36,1.47,0.78,2.92,1.22,4.38c2.63,0.03,5.29-0.22,7.9,0.24c2.43,1.55,4.16,4.17,4.73,6.99
		c0.59,4.66,0.47,9.86-2.62,13.68c-5.73,7.53-18.58,7.25-24.22-0.24c-2.98-4.27-2.75-9.83-1.98-14.75c1.11-2.72,3.3-6.07,6.61-5.96
		c2.85-0.08,5.69,0.28,8.53,0.42c0.26-1.67-0.6-2.92-1.67-4.01c-0.46-0.47-0.32-1.24,0.26-1.54c0.55-0.28,1.11-0.56,1.66-0.85
		C236.55,189.73,235.43,185.87,238.03,183.4z"/>
	<path class="st0" d="M376.77,181.2c5.22-3.24,11.47-5.57,17.67-4.42c3.2,0.45,5.73,3.21,6.21,6.35c0.66,4.23-3.68,7.8-7.7,7.59
		c-4.12-0.24-7.83-2.36-11.23-4.52C379.84,184.81,377.41,183.66,376.77,181.2z"/>
	<path class="st0" d="M139.81,181.45c6.28,0.6,12.6,1.92,18.13,5.07c5.5,2.76,10.66,6.79,13.36,12.47c0.8,3.28,0.72,7.01-1.21,9.91
		c-2.82,4.93-9.27,7.07-14.54,5.09c-4.01-1.91-6.97-5.46-9.35-9.13C142.17,197.75,139.6,189.69,139.81,181.45z"/>
	<path class="st0" d="M268.42,182.96c6.33-3.66,15.29,0.59,16.88,7.61c0.3,3.17,0.56,6.72-1.41,9.43
		c-5.96,9.34-16.07,15.47-26.68,18.09c-0.55-5.64-0.67-11.39,0.71-16.94C259.38,194.26,262.07,186.79,268.42,182.96z"/>
	<path class="st0" d="M579.39,189.96c4.62-5.15,11.77-7.37,18.54-7.45c-0.24,6.59-3.16,13.38-8.35,17.6
		c-2.98,2.61-7.07,0.84-10.52,0.6c-2.3,0.87-0.37,3.13-0.11,4.73c3.32,0.15,7.63-1.21,9.97,1.93c3.62,3.76,3.38,9.43,2.48,14.19
		c-1.08,5-5.49,8.55-10.23,9.85c-5.51,0.93-12.01-0.03-15.56-4.79c-3.99-5.36-4.78-13.77-0.34-19.1c3.1-3.84,8.43-1.41,12.59-2.1
		c-0.64-1.39-1.36-2.73-2.1-4.05c-0.39-0.69,0.07-1.54,0.86-1.6c0.66-0.05,1.32-0.1,1.98-0.15
		C578.07,196.45,576.81,192.59,579.39,189.96z"/>
	<path class="st0" d="M191.06,183.91c4.88,3.84,8.28,9.4,10.64,15.09c1.64,4.66,2.69,11.13-1.76,14.58
		c-4.29,3.93-12.86,2.71-14.42-3.37C182.57,201.18,186.26,191.6,191.06,183.91z"/>
	<path class="st0" d="M542.23,189.39c3.22-2.16,7.59-0.97,10.02,1.83c3.66,4.14,6.4,9.38,6.49,15c-6.09,0.57-12.26-1.62-17.09-5.22
		C537.92,198.17,537.99,191.69,542.23,189.39z"/>
	<path class="st0" d="M379.51,197.32c2.05-2.65,5.79-3.29,8.83-2.21c3.15,1.45,4.96,5.6,3.46,8.81c-0.76,2.02-2.17,3.76-4,4.9
		c-4.23,2.76-9.05,4.83-14.16,5.05C373.69,207.89,375.83,201.99,379.51,197.32z"/>
	<path class="st0" d="M398.35,201.52c1.84-3.05,4.68-6.03,8.4-6.46c3.39,0.14,7.51,0.53,9.52,3.68c3.28,3.72,3.18,9.69,0.11,13.5
		c-5.49,7.34-13.7,12.86-22.78,14.44C392.8,218.07,393.91,209.07,398.35,201.52z"/>
	<path class="st0" d="M511.61,202.02c5.91-0.25,11.82,1.61,16.5,5.2c1.32,1.11,2.69,2.33,3.32,3.99c0.52,2.26,0.12,4.6,0.05,6.89
		c0.54,0.35,1.09,0.69,1.63,1.04c0.64,0.41,0.78,1.28,0.3,1.88c-0.93,1.18-1.81,2.39-2.58,3.68c3.41,1.84,7.09-1.36,10.55,0.05
		c3.1,1.04,5.31,3.93,5.66,7.16c1.5,5.98-0.24,13.22-5.66,16.68c-7.22,5.19-19.62,2.66-22.62-6.25c-1.97-5.57-2.02-13.29,3.38-16.98
		c2.19-1.75,5.08-0.77,7.57-0.43c0.34-1.68,3.19-4.45,0.64-5.31c-3.01,0.92-6.46,2.59-9.38,0.46
		C515.16,216.14,512.04,208.9,511.61,202.02z"/>
	<path class="st0" d="M315.85,203.55c8.05,1.23,15.74,5.01,21.55,10.73c2.89,2.68,4.45,6.98,3.23,10.82
		c-1.66,5.92-9.63,9.28-14.77,5.53c-5.37-4.08-8-10.76-9.39-17.16C316.05,210.19,315.18,206.85,315.85,203.55z"/>
	<path class="st0" d="M421.15,211.96c2.11-6.49,10.26-10.91,16.68-7.89c4.61,1.54,7.57,6.05,7.91,10.8
		c0.88,8.46-1.25,17.19-5.4,24.58c-1.33,2.36-2.68,4.71-3.97,7.09c-3.86-2.75-6.28-7-9.13-10.7
		C422.93,228.77,419.76,220.34,421.15,211.96z"/>
	<path class="st0" d="M202.42,228.68c-0.37-7.87,2.45-15.52,6.8-21.97c6.31,5.89,11.96,13.77,11.85,22.75
		c0.24,5.56-5.7,10.85-11.2,9.04C205.41,237.57,202.42,233.1,202.42,228.68z"/>
	<path class="st0" d="M293.07,214.32c6.92-0.15,14.68,0.64,19.85,5.75c2.37,1.93,2.19,5.38,1.43,8.05
		c-1.71,3.76-6.85,5.6-10.44,3.36C297.93,227.85,293.94,221.21,293.07,214.32z"/>
	<path class="st0" d="M630.88,213.63c7.9,1.32,15.41,5.58,20.19,12.05c3.5,4.57,1.5,12.28-4.19,13.94c-3.38,1.31-7.36,0.16-9.65-2.6
		C631.73,230.66,630.18,221.8,630.88,213.63z"/>
	<path class="st0" d="M488.32,232.99c4.02-6.74,11-11.68,18.67-13.32c1.53,8.1,0.52,16.95-4.17,23.88
		c-3.06,4.84-11.17,4.79-14.35,0.08C485.95,240.63,486.34,236.17,488.32,232.99z"/>
	<path class="st0" d="M148.15,223.09c6.52-2.76,13.97-3.77,20.91-2.2c3.82,0.91,8.18,2.92,9.23,7.08c1.24,3.49-0.43,7.31-3.01,9.73
		c-2.48,2.93-6.84,2.15-10.17,1.54C158.03,235.75,151.61,230.31,148.15,223.09z"/>
	<path class="st0" d="M273.09,221.15c6.89-0.89,14.37,0.6,19.71,5.23c2.33,2,2.82,5.36,1.97,8.2c-1.32,2.04-3.15,4.5-5.86,4.36
		c-4.23,0.47-7.83-2.46-10.34-5.53C275.97,229.76,273.75,225.65,273.09,221.15z"/>
	<path class="st0" d="M655.98,249.76c-0.9-7.29,2.93-14.55,8.39-19.18c4.12,5.53,7.22,12.79,5.52,19.71
		c-0.89,3.9-5.34,4.19-7.84,6.6c-0.11,0.1-0.08,0.29,0.05,0.36c1.51,0.86,3.1,1.58,4.73,2.19c2.08-1.99,3.92-5.18,7.29-4.63
		c4.09-0.5,7.5,2.27,9.95,5.22c1.58,1.97,3.47,4.08,3.55,6.75c0.14,3.42,0.62,7.31-1.64,10.21c-2.45,3.31-5.66,6.48-9.82,7.37
		c-8.74,2.28-18.45-5.39-18.6-14.29c0.57-5.02,6.18-6.01,8.7-9.64c-1.57-1.16-3.47-1.42-5.36-1.33c-0.15,0.01-0.27-0.13-0.23-0.28
		c0.27-1.05,0.54-2.11,0.8-3.17C659.28,254.12,656.42,252.68,655.98,249.76z"/>
	<path class="st0" d="M134.06,231.45c6.29,0.51,13.04,2.16,17.59,6.82c2.76,2.77,1.94,6.88,1.77,10.39
		c0.25,0.11,0.62,0.29,0.99,0.46c0.51,0.23,0.7,0.85,0.42,1.34c-0.8,1.38-1.37,2.86-1.36,4.5c4.08,0.21,8.91-2.28,12.34,0.93
		c3.86,3.18,3.73,8.78,3.23,13.3c-0.88,4.16-3.36,8.38-7.48,10c-3.53,1.37-7.52,2.46-11.24,1.16c-5.49-1.41-9.91-6.3-10.54-11.96
		c-0.37-4.16-0.38-8.96,2.9-12.06c2.36-2.88,6.35-2.06,9.6-2.03c0.7-1.79,2.15-3.86,0.21-5.39c-3.27,1.41-7.56,2.58-10.54-0.1
		C137.12,244.51,133.75,238.05,134.06,231.45z"/>
	<path class="st0" d="M252.69,242.34c3.53-4.67,9.49-6.79,15.11-7.52c3.65-0.51,8.07,0.62,9.78,4.18c0.95,2.95,0.47,6.64-1.98,8.75
		c-1.67,1.47-3.99,1.76-6.14,1.69C263.14,249.58,257.46,246.13,252.69,242.34z"/>
	<path class="st0" d="M594.35,240.12c4.19-1.52,8.7-1.49,13.1-1.5c-1.09,8.03-5.24,15.57-11.39,20.83
		c-4.33,3.34-11.43,2.03-13.95-2.93c-2.41-4-0.5-9.33,3.23-11.77C588.14,242.86,591.17,241.3,594.35,240.12z"/>
	<path class="st0" d="M412.95,238.74c5.24-0.02,9.99,2.52,14.36,5.14c3.53,2.28,7.33,5.08,8.35,9.42c1.8,4.8-2.07,10.44-7,11.17
		c-3.11,0.79-6.47-0.5-8.46-2.96C414.84,255.24,413.07,246.8,412.95,238.74z"/>
	<path class="st0" d="M624.01,240.13c8.39,1.44,17.55,4.68,22.23,12.28c3.83,5.43-1.37,13.86-7.85,13.3
		c-3.75,0.11-6.59-2.9-8.78-5.57C625.67,254.3,623.55,247.19,624.01,240.13z"/>
	<path class="st0" d="M558.75,243.42c6.62,0.03,13.15,2.5,18.06,6.96c2.76,2.24,2.37,6.54,0.93,9.43
		c-2.85,3.03-7.91,3.53-11.12,0.74C561.7,256.32,558.89,249.86,558.75,243.42z"/>
	<path class="st0" d="M287.79,256.9c1.66-4.4,5.11-8.91,10.18-9.17c5.62-0.59,10.63,4.63,10.56,10.1
		c-0.9,6.09-5.42,10.82-10.13,14.38c-3.92,2.69-8.14,5.13-12.82,6.18C285.2,271.21,284.49,263.57,287.79,256.9z"/>
	<path class="st0" d="M443.34,255.48c2.79-2.82,5.6-5.84,9.36-7.35c3.71,9.02,5.55,19.41,2.35,28.86c-2.07,3.45-5.89,6.27-10.08,5.9
		c-3.87,0.46-7.15-2.32-9.03-5.43c-1.72-2.59-1.14-5.9-0.39-8.71C437.03,263.79,439.7,259.17,443.34,255.48z"/>
	<path class="st0" d="M315.27,249.34c3.88-1.83,8.99,0.45,10.08,4.63c1.15,4.45,0.77,9.26-0.68,13.61
		c-0.83,2.02-1.49,4.41-3.35,5.74c-2.08-0.63-3.39-2.54-4.83-4.03c-3.26-3.53-5.23-8.25-5.36-13.05
		C310.97,253.39,312.6,250.45,315.27,249.34z"/>
	<path class="st0" d="M330.54,249.28c6.84-0.02,14.11,2.31,18.63,7.66c2.25,2.45,1.07,6.02,1.08,9c1.04,0.63,2.09,1.25,3.12,1.9
		c-0.76,0.45-1.5,0.9-2.25,1.35c-0.52-0.76-1.05-1.53-1.58-2.28c-3.28,0.89-7.26,2.39-10.25-0.07
		C334.06,262.62,331.21,255.87,330.54,249.28z"/>
	<path class="st0" d="M481.9,258.26c6.11-6.14,15.24-8.38,23.69-7.92c-1.15,8.03-4.96,15.91-11.47,20.93
		c-3.4,2.59-8.64,2.55-11.86-0.32C478.82,267.67,478.36,261.65,481.9,258.26z"/>
	<path class="st0" d="M603.27,277.73c2.33-9.48,8.47-17.52,15.6-23.97c3.15,5.45,6.31,11.08,7.23,17.41
		c1.5,6.95,2.23,15.43-3.03,21.03c-0.58,0.82-1.88,1.84-0.52,2.64c-1.15,0.47-2.33,0.84-3.53,1.15c-4.62-0.02-9.7-0.61-13.21-3.93
		C602.25,288.22,602.38,282.55,603.27,277.73z"/>
	<path class="st0" d="M576.51,266.13c0.99-0.4,1.6-1.29,2.24-2.13c0.21-0.27,0.64-0.1,0.62,0.24c-0.07,0.82-0.13,1.65-0.18,2.48
		c3.32-0.13,6.7-0.89,10-0.15c2.41,1.26,4.06,3.71,4.69,6.31c0.96,5.38,0.51,11.66-3.72,15.62c-6.61,6.7-20.41,5.36-24.03-3.87
		c-1.69-3.52-1.7-7.58-1.12-11.35c0.42-2.82,2.09-5.59,4.75-6.78C571.97,266.04,574.26,266.38,576.51,266.13z"/>
	<path class="st0" d="M412,291.21c0.11-9.42,3.13-18.78,8.46-26.54c6.96,6.31,12.51,14.33,15.31,23.36c0.94,4,1.07,8.41-0.5,12.27
		c-3.33,7.03-14.06,8.43-19.28,2.79C412.74,300.1,412.02,295.41,412,291.21z"/>
	<path class="st0" d="M355.92,272.12c2.97-0.54,6.19-0.06,7.93,2.67c4.83,6.95,2.45,17.95-5.06,22.09
		c-5.66,2.9-13.34,2.31-17.85-2.43c-4.77-4.66-5.63-12.38-2.92-18.32c1.11-2.28,3.51-4.07,6.11-4.06
		C348.06,271.95,352,272.46,355.92,272.12z"/>
	<path class="st0" d="M196.42,274.3c3.5-2.41,8.7-2.1,11.72,0.99c3.4,2.63,2.87,7.55,2.07,11.27c-2.76,7.06-7.72,13.33-13.99,17.62
		c-3.52-6.58-5.13-14.28-4.25-21.72C192.57,279.42,193.78,276.16,196.42,274.3z"/>
	<path class="st0" d="M221.2,273.37c10.99,0.8,22.36,5.05,29.52,13.75c2.84,3.31,3.99,8.33,1.73,12.26
		c-1.58,4.01-5.4,7.17-9.83,7.08c-5.14,0.51-9.63-2.86-12.59-6.75C224.28,292.21,221.67,282.7,221.2,273.37z"/>
	<path class="st0" d="M126.55,295.08c5.35-5.91,12.59-10.04,20.35-11.8c5-1.32,11.08,0.91,13.19,5.83c2.28,5.33-1.27,12.19-7,13.26
		C143.64,304.31,134.16,300.48,126.55,295.08z"/>
	<path class="st0" d="M171.47,294.82c4.8-4.57,11.57-6.87,18.16-6.62c-0.59,7.05-4.01,13.9-9.58,18.32c-3.2,1.49-6.74-0.25-10-0.69
		c-0.24,1.76,0.44,3.43,0.99,5.07c3.14,0.3,7.09-0.93,9.49,1.73c2.48,2.44,2.86,6.14,3.06,9.43c0.34,5.95-3.25,12.08-8.93,14.15
		c-5.38,2.1-12.2,1.26-16.38-2.94c-5.4-5.2-6.1-14.67-1.4-20.52c3.23-3.54,8.4-1.01,12.51-1.5c1.25-2.02-1.38-3.26-2.78-4.5
		c-0.16-0.14-0.12-0.39,0.07-0.48c1.12-0.48,2.25-0.94,3.36-1.42C169.85,301.54,168.59,297.38,171.47,294.82z"/>
	<path class="st0" d="M508.15,295.92c4.24-2.36,10.13-1.19,13.02,2.75c3.4,4.57,4.88,10.4,4.81,16.05c0,4.44,0.2,9-1.44,13.22
		c-8.81-2.88-16.44-9.47-20.57-17.76C501.46,305.19,503.13,298.62,508.15,295.92z"/>
	<path class="st0" d="M479.32,300.36c3.04-2.84,7.59-2.82,11.44-2.1c3.53,1.13,6.48,3.98,7.85,7.42c1.39,5.02,0.1,10.35-2.32,14.85
		c-3.1,7.46-8.97,13.23-14.98,18.41c-4.92-7.3-7.37-16.23-6.85-25.02C474.14,309,475.69,303.82,479.32,300.36z"/>
	<path class="st0" d="M629.27,302.45c8.75-5.14,19.24-5.88,29.16-5.07c-1.22,6.09-4.2,11.67-7.61,16.81
		c-3.37,5-7.96,9.46-13.69,11.58c-7.36,2.93-16.34-3.95-15.55-11.82C621.05,308.79,625.34,304.98,629.27,302.45z"/>
	<path class="st0" d="M278.2,303.96c8.88-1.99,18.21-2.57,27.17-0.8c-6.89,0.07-13.89-1.32-20.67,0.51c3.87,2.1,8.7,3.53,10.45,8.05
		c2.09,5.93,0.02,12.44-3.04,17.67c-3.36,6.38-8.61,11.47-13.89,16.27c-4.27-6.48-6.15-14.3-6.73-21.96
		c-0.27-4.74,0.21-9.69,2.71-13.83c1.66-2.43,4.28-3.88,6.61-5.57C280.18,304.21,278.86,304.05,278.2,303.96z"/>
	<path class="st0" d="M528.25,302.63c7.26-0.18,15.07,2.46,19.47,8.51c1.82,2.32,0.54,5.32-0.02,7.85c1.2,0.43,2.41,0.85,3.63,1.28
		c-1.32,1.68-3.08,3.37-2.62,5.72c4.14-0.04,9.51-2.19,12.61,1.63c4.29,5.66,3.43,14.27-0.99,19.62c-3.97,4.5-10.62,5.46-16.18,3.92
		c-4.75-1.52-8.18-5.88-9.34-10.62c-0.65-4.44-0.8-9.56,2.5-13.06c2.1-2.98,6.07-2.11,9.17-2.06c2.22-0.75,2.11-3.52,2.05-5.42
		c-3.45,0.46-7.19,3.21-10.51,0.83C532.06,316.85,528.94,309.58,528.25,302.63z"/>
	<path class="st0" d="M139.14,305.72c2.92-0.79,6.4-0.72,8.87,1.23c3.2,2.58,5.27,7.41,2.86,11.21
		c-4.5,8.07-13.58,12.43-22.36,14.08c-0.14-4.45-0.35-9.06,1.28-13.3C131.51,313.78,134.01,308.25,139.14,305.72z"/>
	<path class="st0" d="M197.88,316.47c6.54-6.4,14.95-11.92,24.43-11.89c3.66-0.09,6.96,2.29,8.77,5.35
		c2.36,5.24-0.12,12.56-6.04,14.01c-3.87,0.54-7.89,0.65-11.73-0.12C207.82,322.24,202.48,319.89,197.88,316.47z"/>
	<path class="st0" d="M460.91,307.15c2.97-0.86,6.19-2.16,9.28-1.34c0.14,4.86-2.19,9.78-5,13.73c-2.21,3.07-6.15,6.15-10.09,4.52
		c-1.41-0.16-3.25-1.76-4.35-0.25c0.08,1.52,0.41,3.01,0.69,4.51c3.27,0.15,7.22-0.68,9.8,1.87c2.82,2.73,3.24,6.89,3.03,10.6
		c0.09,6.37-4.8,12.69-11.24,13.51c-4.11,0.28-8.74,0.64-12.15-2.13c-5-3.29-6.66-9.83-5.97-15.48c0.6-3.41,2.27-7.44,5.99-8.35
		c3.03-0.42,6.05,0.4,9.06,0.7c0.23-0.53,1.14-1.04,0.92-2.1c-0.91-0.95-1.82-1.88-2.74-2.8c-0.29-0.29-0.12-0.78,0.28-0.83
		c0.87-0.11,1.74-0.22,2.62-0.32c-0.09-2.45-0.98-4.89-0.59-7.34C452.06,311.16,456.74,308.81,460.91,307.15z"/>
	<path class="st0" d="M311.15,309.34c4.89-4.01,13.28-0.67,14.03,5.62c0.85,3.85-1.31,7.56-4.3,9.84
		c-5.92,4.32-13.21,6.53-20.53,6.59C300.87,323.09,304.51,314.54,311.15,309.34z"/>
	<path class="st0" d="M248.28,322.94c1.06-4.45,3.95-9.63,9.04-9.98c3.14-0.53,6.4,0.56,8.52,2.95c3.8,3.31,3.03,9.22,0.98,13.28
		c-3.88,6.92-9.87,12.77-17.02,16.24C247.53,338.18,247.04,330.42,248.28,322.94z"/>
	<path class="st0" d="M581.61,314.95c6.91,0,14.1,2.45,18.85,7.61c2.23,2.32,1.45,5.62,0.97,8.44c0.65,0.45,1.3,0.89,1.95,1.34
		c0.46,0.32,0.56,0.97,0.2,1.4c-1.11,1.35-2.86,2.77-1.5,4.24c4.18,0.69,9.61-2.06,12.64,2.02c4.81,6.31,3.37,16.5-3.13,21.16
		c-3.81,3.47-9.35,3.36-14.08,2.45c-9.41-2.84-12.73-16.03-7.01-23.57c2.27-3.14,6.36-1.88,9.61-2.36c1.38-1.24,1.35-3.18,1.54-4.87
		c-3.67,0.41-7.93,2.48-11.19-0.25C585.27,328.25,582.19,321.62,581.61,314.95z"/>
	<path class="st0" d="M646.9,326.56c4.96-4.28,11.51-7.02,18.13-6.65c-0.42,6.83-3.69,13.78-9.26,17.89
		c-3.19,2.5-6.93-0.37-10.43,0.19c-0.36,0.06-0.6,0.41-0.5,0.76c0.39,1.36,0.84,2.72,1.34,4.05c3.2-0.09,7.24-1.19,9.65,1.63
		c4.61,5.69,4.19,14.83-0.93,20.08c-6.32,7.35-19.61,5.4-24.2-2.93c-1.81-4.81-2.39-10.6,0.27-15.22c1.54-2.81,4.97-4.71,8.17-3.82
		c2.07,0.05,4.56,1.71,6.27-0.1c-0.62-1.39-1.56-2.58-2.53-3.73c-0.2-0.23-0.13-0.58,0.14-0.72c0.78-0.4,1.55-0.79,2.34-1.18
		C645.32,333.42,643.93,329.14,646.9,326.56z"/>
	<path class="st0" d="M195.6,328.82c5.9-3.16,13.04-4.89,19.59-2.97c3.49,0.94,4.61,4.55,5.71,7.55c0.7,0.07,1.4,0.14,2.1,0.21
		c0.67,0.06,1.14,0.7,0.98,1.35c-0.38,1.56-0.47,3.15,0.67,4.5c2.51-1.32,4.57-3.36,7.08-4.67c2.68-0.73,5.9-0.43,8.02,1.52
		c4.19,3.99,6.78,9.86,5.7,15.69c-1.94,9.17-13.62,14.77-21.9,10.17c-5.27-3.65-9.45-10.3-8.03-16.89c1.54-3.16,5.14-4.3,7.95-6.01
		c-0.8-1.5-0.42-4.4-2.68-4.41c-2.27,2.4-4.45,5.64-8.24,5.27C205.62,339.1,199.53,334.48,195.6,328.82z"/>
	<path class="st0" d="M665.27,335.23c3.59-2.65,8.27-0.83,11.81,0.99c6.11,3.16,10.43,11.21,14.47,16.46
		c-0.56,0.21-1.73,0.08-3.44,0.33c-7.75,0.41-16.49,1.81-23.25-2.98C659.82,346.68,660.28,338.4,665.27,335.23z"/>
	<path class="st0" d="M331.19,342.33c2.78-5.63,10.62-7.74,15.9-4.41c10.02,6.2,15.51,17.71,17.48,28.99
		c-10.07-0.02-20.58-1.89-28.9-7.92c-2.23-1.76-4.37-3.83-5.48-6.48C329.55,349.15,329.38,345.39,331.19,342.33z"/>
	<path class="st0" d="M478.3,352.11c4.48-7.04,12.09-11.4,19.95-13.66c0.43,6.44,0.31,13.09-2.43,19.07
		c-0.95,2.17-1.98,4.48-3.94,5.94c-3.25,2.45-7.49,2.55-11.13,0.94C476.78,361.81,475.68,356.01,478.3,352.11z"/>
	<path class="st0" d="M505.37,349.27c7.16-4.36,15.76-4.61,23.88-3.83c-1.33,4.45-3.88,8.4-6.57,12.15c-3.18,4.46-8.04,8-13.55,8.7
		c-2.98-0.49-5.79-2.46-7.31-5.07C500.4,357.1,501.13,351.45,505.37,349.27z"/>
	<path class="st0" d="M307.68,359.31c-1.79-5.18,1.41-12.26,7.25-12.83c4.19-0.59,9.22,1.05,10.89,5.28
		c3.88,8.56,2.8,18.65-0.69,27.16C317.02,375.14,310.36,367.87,307.68,359.31z"/>
	<path class="st0" d="M251.37,356.02c4.77-2.99,9.77-6.27,15.6-6.41c4.32-0.54,8.83,1.37,11.2,5.08c2.14,3.49,1.87,7.74,2.48,11.64
		c-0.37,0.61-0.73,1.23-1.1,1.84c-3.34,2.17-6.7,4.65-10.75,5.23c-4.05,0.62-8.23,1.61-12.28,0.46c-5.84-1.37-11.97-2.62-16.97-6.14
		C243.19,363.55,246.61,359,251.37,356.02z"/>
	<path class="st0" d="M553.68,361.87c0.61-3.34,2.39-7.13,6.02-7.96c2.23-0.85,4.67,0.08,6.57,1.32c2.92,1.91,2.01,6.01,1.74,8.94
		c-2.36,5.45-6.4,10.51-11.86,13.09C553.55,372.61,553.01,367.08,553.68,361.87z"/>
	<path class="st0" d="M410.76,374.85c3.27-6.12,8.35-11.37,14.56-14.52c2.38,6.29,3.91,13.27,2.03,19.9
		c-0.98,3.3-2.32,7.05-5.53,8.78c-3.23,0.45-7.22,1.06-9.72-1.57C408.28,384.47,408.83,378.75,410.76,374.85z"/>
	<path class="st0" d="M577.12,373.74c1.61-7.61,11.94-11.5,18.16-6.88c4.32,3.09,7.31,7.61,9.52,12.36
		c3.27,6.03,3.93,12.99,4.7,19.67c-10.19-1.11-20.45-4.67-27.98-11.85C578.07,383.68,575.36,378.61,577.12,373.74z"/>
	<path class="st0" d="M529.41,367.57c6.62-2.71,14.19-1.02,20.44,1.97c-1.34,3.01-4.12,4.93-6.56,6.98
		c-3.46,2.61-7.72,4.85-12.18,4.29c-3.28-0.66-4.26-5.01-7.78-5.12c-0.28,1.62-0.55,3.24-0.77,4.87c2.56,1.44,5.82,2.48,7.19,5.3
		c1.84,7.74-3.34,16.23-10.95,18.37c-5.5,1.24-11.61-0.67-15.26-5.01c-2.88-3-3.81-7.34-3.49-11.37c0.62-3.66,2.59-6.99,5.07-9.69
		c2.24-2.44,5.88-3.76,9.06-2.53c2.59,1.44,4.68,3.62,7.34,4.98c1.31-2.04,0.27-4.08-0.77-5.93c1.44-0.04,2.88-0.04,4.33-0.07
		C525.77,371.93,526.44,368.63,529.41,367.57z"/>
	<path class="st0" d="M285.28,375.3c4.65-5.11,11.91-7.61,18.73-7.34c-0.37,4.73-2.23,9.17-4.68,13.18c-1.52,2.4-3.7,4.49-6.36,5.53
		c-2.5,0.54-4.89-0.73-7.34-1.02c-1.3,0.12-2.46,0.82-3.72,1.13c-0.43-0.52-0.84-1.06-1.23-1.6c1.32-0.3,2.64-0.59,3.97-0.86
		C283.96,381.34,282.92,377.83,285.28,375.3z"/>
	<path class="st0" d="M246.4,382.8c3.16-3.77,7.52-6.75,12.45-7.53c2.75-0.37,4.92,1.71,6.87,3.32c2.88,2.32,3.06,6.43,2.54,9.8
		c-2.87,6.22-10.02,8.69-16.35,9.56c-4.69,0.42-9.48,0.59-14.12-0.37C239.16,391.93,242.48,387,246.4,382.8z"/>
	<path class="st0" d="M467.6,383.66c1.68-3.65,5.88-5.73,9.8-4.75c8.13,1.85,14.75,7.91,19.05,14.85c-6.68,4.07-15.16,4.6-22.62,2.7
		C468.37,395.36,464.68,388.66,467.6,383.66z"/>
	<path class="st0" d="M298.75,386.51c0.99-4.45,5.92-7.22,10.29-6.35c8.13,1.52,15.48,6.41,20.34,13.07
		c-7.17,3.85-15.5,6.13-23.63,4.56C300.85,396.79,297.19,391.4,298.75,386.51z"/>
	<path class="st0" d="M563.28,386.77c3.3-2.24,7.94-2.17,11.27-0.04c2.92,2.22,4.58,5.66,5.72,9.07c2,6.48,2.19,13.5,0.55,20.08
		c-0.28,0.96-0.98,1.72-1.5,2.55c-4.09-2.29-8.49-4.23-11.78-7.69c-3.87-3.89-8.13-8.18-8.91-13.86
		C557.94,392.92,560.18,389.06,563.28,386.77z"/>
	<path class="st0" d="M284.45,390.6c3.84-0.11,8.88-1.13,11.29,2.72c4.14,6.4,2.71,16.03-3.45,20.67
		c-4.49,3.62-11.06,3.68-16.16,1.37c-5.45-2.47-8.1-8.75-7.84-14.49c-0.05-3.96,1.66-8.5,5.55-10.11
		C277.35,390.16,280.93,391.34,284.45,390.6z"/>
	<path class="st0" d="M532.01,400.18c1.44-4,4.07-8.7,8.8-9.09c6.24-1.08,12.3,6.02,9.52,11.95c-3.23,7.87-10.64,13.51-18.54,16.2
		C529.95,413.09,530.1,406.31,532.01,400.18z"/>
	<path class="st0" d="M227.71,406.23c2.37-3.1,5.93-5.77,10.01-5.57c4.14,0.53,8.31,3.91,7.96,8.41c0.61,4.14-2.6,7.34-5.59,9.64
		c-5.54,3.93-12.31,5.97-19.07,6.18C221.22,418.17,223.8,411.65,227.71,406.23z"/>
	<path class="st0" d="M248.67,410.62c-0.07-4.53,2.88-9.57,7.74-10.04c5.04-0.99,10.36,3.27,10.31,8.44
		c0.48,5.68-2.25,10.96-5.37,15.5c-1.7,2.54-3.76,4.85-6.29,6.6C251.21,424.99,248.31,417.97,248.67,410.62z"/>
	<path class="st0" d="M433.64,403.55c7.13-2.93,16.07,2.58,16.48,10.33c0.16,8.22-4.34,15.68-9.28,21.92
		c-2.79,2.99-5.41,6.4-9.17,8.21c-4.79-9.17-7.71-19.78-5.92-30.13C426.27,409.34,429.6,405.45,433.64,403.55z"/>
	<path class="st0" d="M495.73,406.31c4.18-0.88,8.55,0.15,12.17,2.33c4.51,2.5,9.19,5.47,11.68,10.15c0.54,0.68-0.2,0.87-0.34,1.01
		c-6.46,4.04-14.42,5.15-21.88,4c-2.65-0.67-5.13-2.29-6.79-4.47c-0.28-0.37-0.45-0.81-0.51-1.27c-0.3-2.18-0.29-4.42,0.09-6.58
		C491.16,409.09,493.22,407.09,495.73,406.31z"/>
	<path class="st0" d="M458.06,412.34c4.15-4.88,13.8-3.14,15.29,3.33c1.06,3.18-0.28,6.56-1.88,9.32
		c-3.94,6.14-10.26,10.22-16.84,13.1c-1.6-3.53-1.36-7.47-1.31-11.24C453.52,421.72,454.73,416.38,458.06,412.34z"/>
	<path class="st0" d="M469.03,436.48c1.63-3.59,4.91-7.33,9.25-6.86c3.56-0.31,6.55,2.33,8.17,5.26c1.13,2.87,0.52,6.18-1.02,8.79
		c-3.38,7.16-10.56,11.64-17.78,14.24C465.64,450.89,466.35,443.23,469.03,436.48z"/>
	<path class="st0" d="M499.94,436.38c4.71-4.83,11.61-6.68,18.15-7.13c-0.38,6.98-3.44,14.35-9.46,18.27
		c-2.97,1.93-6.4,0.03-9.34-0.96c-1.36,1.4-1.02,3.26-0.54,4.96c0.05,0.17,0.2,0.29,0.37,0.3c2.46,0.1,5.01-0.25,7.4,0.48
		c3.16,1.69,5.53,5.08,5.56,8.74c0.35,5.07-0.55,11.04-4.98,14.21c-6.27,4.99-16.3,4.14-21.42-2.11c-3.19-4.03-3.54-9.61-2.57-14.49
		c0.65-3.28,3.35-5.98,6.57-6.77c2.69,0.09,5.33,0.76,8.02,0.91c0.16,0.01,0.32-0.11,0.35-0.27c0.32-1.85-0.94-3.17-2.2-4.36
		c-0.17-0.16-0.14-0.44,0.06-0.56c0.84-0.49,1.68-0.97,2.52-1.45C498.29,442.85,497.33,439,499.94,436.38z"/>
	<path class="st0" d="M514,454.72c-1.98-5.25,2.5-11.64,8.13-11.32c3.84-0.28,7.13,2.15,9.84,4.58c4.44,4.3,7.52,9.87,9.3,15.76
		c-5.78,0.15-11.81,0.87-17.33-1.27C519.96,461.05,515.55,458.99,514,454.72z"/>
	<path class="st1" d="M651.36,243.11c-0.29,0.41-0.88,1.24-1.17,1.66c0.86,5.58,1.11,11.31,0.02,16.89
		c-1.54,9.64-7.04,18.28-14.2,24.76c-3.86,3.71-8.74,6.06-13.47,8.43c-1.15,0.47-2.33,0.84-3.53,1.15
		c-13.44,4.83-28.34,4.59-41.95,0.51c-5.85-1.6-11.36-4.18-17.17-5.88c-15.65-5.83-32.02-9.73-48.62-11.54
		c3.49-2.49,7.95-2.73,11.9-4.11c13.05-3.48,26.15-6.84,39.44-9.33c1.35-0.2,2.64-0.74,3.6-1.75c-1.31-0.07-2.6-0.1-3.89,0
		c-28.17,2.23-56.66,6.05-83.02,16.74c-4.4,1.59-8.49,3.97-13.05,5.1c2.41-6.21,5.61-12.09,7.87-18.36
		c4.36-11,7.11-22.53,10.41-33.87c3.53-12.17,9.35-23.98,18.49-32.92c2.18-2.4,5.7-1.45,8.57-1.73c11.53-0.5,22.48,5.05,30.74,12.78
		c1.24,1.07,2.32,2.79,4.2,2.58c-1.42-3.75-4.44-6.52-7.19-9.29c-4.35-4.34-9.77-7.49-15.46-9.69c-3.43-1.36-7.17-1.58-10.61-2.85
		c7.11-4.98,15.66-7.86,24.34-8.13c11.78-0.61,23.37,4.54,31.83,12.56c0.88,0.87,2.02,1.37,3.18,1.79c-1.15-4.23-4.93-7.09-8.07-9.9
		c-7.44-6.59-17.25-10.02-27.1-10.46c0.5-0.89,1.02-1.76,1.63-2.58c7.31-8.67,11.29-20.36,10.26-31.69
		c-2.21,1.53-1.87,4.49-2.65,6.78c-2.55,11.12-9.58,21.1-19.27,27.14c-3.85,2.64-8.66,3.06-12.77,5.16
		c-7.48,3.68-14.12,8.98-19.72,15.12c-2.31,2.56-4.27,5.4-6.56,7.97c-0.31-4.44,0.28-8.84,0.64-13.25
		c0.24-12.19,0.15-24.39,0.08-36.58c0.07-1.29-0.28-2.45-1.09-3.49c-0.82,2.99-1.16,6.07-1.3,9.16
		c-3.09,27.12-6.22,54.53-14.99,80.52c-0.32,0.63-0.67,1.25-1.05,1.85c-0.37-1.67-0.71-3.35-0.87-5.05
		c-1.79-14.13-8.1-27.65-17.83-38.05c-4.97-6.84-8.1-15.29-7.64-23.83c-0.19-5.46,0.53-10.96,2.55-16.05
		c0.53-1.87,2.03-3.88,0.77-5.75c-4.09,5.1-6.2,11.49-7.52,17.81c-1.34,6.42-0.46,12.97,0.51,19.37c-5.85-2.56-11.92-5.08-18.4-5.28
		c-9.69-0.64-19.56,1.94-27.77,7.12c-0.07,0.38-0.23,1.14-0.3,1.52c4.58-0.83,8.83-2.92,13.47-3.52
		c12.96-2.56,26.6,2.31,36.33,10.95c9.93,9.4,16.22,22.32,18.31,35.78c1.38,9.44,1.34,19.23-0.76,28.55
		c-4.4,9.52-9.83,18.57-16.11,26.95c-2.2,2.89-4.26,6.01-7.25,8.16c-3.59,2.62-7.06,5.4-10.39,8.34
		c-10.82,9.23-19.41,20.69-26.96,32.65c-0.48-15.93-1.54-31.86-4.18-47.6c-2.62-17.91-6.25-35.98-14.45-52.27
		c-3.49-7.54-8.58-14.16-13.07-21.09c-3-10.57-4.11-21.71-3.14-32.67c0.97-8.48,2.18-17.14,5.92-24.92
		c6.26-14.41,17.23-27.03,31.44-33.98c8.82-4.75,18.71-6.83,28.55-8.18c-0.08-0.87-0.28-1.7-0.59-2.49
		c-9.08-0.37-18.19,0.8-26.92,3.32c-9.51,2.92-18.24,8.1-25.69,14.66c-4.86,4.69-9.03,10.03-12.75,15.64
		c-3.2-9.17-7.88-17.85-14.32-25.16c-5.08-8.4-6.96-18.5-6.35-28.23c-0.05-7.35,2.45-14.33,4.45-21.29
		c-0.41-0.05-1.2-0.15-1.61-0.19c-2.53,3.02-3.7,6.91-5.23,10.48c-3.59,9.24-3.81,19.31-2.96,29.06c-3.59-1.55-6.97-3.56-10.65-4.92
		c-9.74-3.62-20.41-3.87-30.62-2.67c-0.09,0.5-0.28,1.52-0.37,2.02c10.5-0.09,21.1,2.19,30.42,7.06
		c14.33,7.82,24.79,22.13,28.43,37.98c0.98,3.95,1.87,8.05,1.3,12.13c-0.51,2.36-1.4,4.62-1.93,6.98
		c-2.48,9.76-2.35,19.89-2.14,29.88c-5.53-4.38-10.95-8.92-16.84-12.84c-13.12-8.54-27.3-15.49-42.12-20.54
		c-3.08-0.91-6.15-1.87-9.17-2.95c-15.03-4.44-30.55-6.96-46.09-8.79c-7.1-0.59-14.18-1.67-21.31-1.78c0.59,0.8,1.46,1.29,2.43,1.48
		c20.29,4.57,40.72,8.87,60.31,15.98c20.75,7.36,40.65,17.73,57.56,31.94c13.51,11.69,25.08,26.04,31.79,42.72
		c-4.46-3.01-8.78-6.28-13.55-8.83c-15.84-9.04-35.21-12.09-52.91-7.33c-10.13,2.54-19.5,7.61-27.7,13.99
		c-1.11,0.73-0.18,2.1-0.02,3.06c4.5-1.98,8.72-4.56,13.34-6.29c9.13-3.83,19.07-5.23,28.91-5.07c12.56,0.66,24.67,5.27,35.25,11.92
		c7.88,5.59,14.91,12.59,19.77,21c7.83,13.34,9.58,29.21,9.81,44.39c0.11,3.2,1.21,6.63-0.15,9.69
		c-8.57-8.73-17.84-16.9-28.35-23.24c-5.02-3.3-10.32-6.21-15.99-8.25c-13.42-5.31-27.87-7.87-42.28-7.72
		c-4.02,0.4-8.05,0.81-12.09,0.95c-2.8-3.67-5.51-7.44-8.57-10.91c-13.7-16.32-32.29-28.6-52.89-34.19
		c-4.45-1.5-9.22-1.71-13.65-3.2c-12.82-6.61-22.68-18.48-27.57-31.99c-2.8-7.74-3.21-16.07-2.54-24.21
		c0.49-4.17,1.8-8.22,1.83-12.45c-0.91,0.4-2.02,0.66-2.27,1.77c-5.72,13.34-6.26,28.75-1.95,42.57c2.4,5.44,5.05,10.8,8.75,15.49
		c1.92,2.84,4.66,5.02,6.42,7.99c-10.95,0.52-21.79,2.22-32.53,4.29c-0.51,0.28-1.52,0.84-2.02,1.11c2.78,1.81,6.03,0.56,9.07,0.56
		c5.42-0.07,10.84-0.21,16.26-0.14c13.02,0.22,25.96,2.61,38.19,7.09c-8.37,1.55-16.89,2.99-24.59,6.81
		c-16.93,7.82-29.86,23.35-35.44,41.02c1.17,0.4,2.75,0.89,3.21-0.74c7.22-13.14,18.09-24.64,31.9-30.81
		c11.6-5.53,24.79-6.7,37.43-5.31c4.3,0.89,8.76,1.35,12.82,3.09c9.6,7.12,18.11,15.77,24.86,25.65
		c-12.21,4.53-23.74,11.1-33.17,20.14c-5.18,5.09-10.47,10.17-14.39,16.34c1.15,0.6,2.75,2.35,3.88,0.79
		c7.71-7.32,16.02-14.2,25.59-18.95c7.56-4.51,16.08-7.03,24.61-8.95c8.88-1.99,18.21-2.57,27.17-0.8
		c7.95,1.41,15.99,2.77,23.52,5.79c5.33,2.39,10.52,5.09,15.56,8.05c0.91,0.5,1.61,1.28,2.3,2.05c-7.97,1.9-16.03,3.77-23.45,7.32
		c-18.19,8.08-33.03,22.66-42.65,39.96c-0.37,0.61-0.73,1.23-1.1,1.84c-2.19,4.92-5.08,9.71-5.96,15.08
		c0.64,0.28,1.91,0.84,2.54,1.11c2.44-3.42,4.3-7.21,6.74-10.62c5.06-7.75,11.42-14.57,18.28-20.75
		c13.84-11.79,31.38-19.18,49.5-20.74c4.53,0,9.22-1.54,13.65-0.38c7.27,6.48,13.78,13.9,19.31,21.93c0.58,6.51-0.71,13-1.1,19.49
		c-6.47,59.99-16.98,119.49-22.31,179.59c-0.97,13.89-2.13,27.76-1.76,41.7c13.12,0.17,26.25-0.05,39.37-0.09
		c6.09-0.86,12.27-0.08,18.38-0.74c-5.49-30.7-8.97-61.78-10.61-92.92c-0.32-21.13-1.3-42.49,2.74-63.35
		c1.38-7.31,3.53-14.59,7.34-21.03c3.98-5.94,9.13-10.99,14.36-15.82c2.38-2.59,6.14-1.45,9.23-1.75
		c11.6-0.35,23.07,3.49,32.58,10.04c10.31,7.35,17.23,18.71,20.13,30.95c0.33,1.63,0.61,6.19,3.02,3.92
		c0.16-3.01-0.45-5.97-0.98-8.91c-1.73-9.94-6.09-19.55-13.15-26.84c-9.48-10.28-23.12-16.11-36.88-17.63
		c2.02-1.69,4.29-3.05,6.61-4.28c13.97-7.86,29.69-12.28,45.56-14.06c7.2-0.78,14.42-1.4,21.65-1.82c0.05-0.76,0.11-1.52,0.17-2.28
		c-10.82-0.4-21.67-1.54-32.48-0.47c-2.45,0.34-4.91,0.46-7.35,0.72c-20.2,2.48-39.7,10.56-55.62,23.22
		c-7.43,5.78-13.45,13.08-20.07,19.68c-0.26-4.23-0.16-8.48,0.45-12.68c0.31-9.8,1.9-19.54,4.19-29.06
		c4.2-17.21,12.63-33.56,25.25-46.11c11.67-12.04,25.85-21.99,41.89-27.16c13.04-4.28,26.95-5.09,40.57-4.24
		c6.79,0.66,13.62,1.84,19.89,4.63c10.47,4.36,19.02,12.25,26.13,20.93c9.52,11.89,14.46,27.82,11.25,42.91
		c-2.3,11.07-9.59,20.64-18.89,26.87c-1.26,0.78-2.43,1.76-2.85,3.25c7.95-2.1,14.66-7.68,19.78-13.97
		c8.92-11.1,11.22-26.41,8.18-40.09c-3.31-12.31-10.12-23.63-19.45-32.32c-1.45-1.28-2.75-2.71-3.83-4.32
		c3.27,0.6,6.46,1.6,9.57,2.78c17.43,5.95,33.98,14.14,50.26,22.69c8.23,4.18,16.05,9.21,24.52,12.9c-0.76-2.1-2.82-3.16-4.45-4.49
		c-9.22-6.83-18.71-13.31-28.34-19.57c-3.4-2.25-7.22-3.92-10.12-6.85c14.77-0.34,30.42-3.69,41.69-13.82
		c8.67-7.27,14.74-17.72,15.98-29.03C654.45,257.23,654.34,249.79,651.36,243.11z"/>
</g>
</svg>
